<svg width="16" height="16" viewBox="0 0 16 16" fill="none" xmlns="http://www.w3.org/2000/svg">
    <path d="M7.08594 6.30469C7.0625 6.23438 7.08594 6.16406 7.15625 6.09375C7.20312 6.04688 7.27344 6 7.36719 6H8.63281C8.70312 6 8.77344 6.04688 8.84375 6.09375C8.89062 6.16406 8.91406 6.23438 8.91406 6.30469L8.77344 8.92969C8.75 9 8.70312 9.07031 8.65625 9.11719C8.60938 9.16406 8.53906 9.1875 8.49219 9.1875H7.50781C7.4375 9.1875 7.36719 9.16406 7.32031 9.11719C7.27344 9.07031 7.22656 9 7.22656 8.92969L7.08594 6.30469ZM8.98438 10.5C8.98438 10.2422 8.86719 10.0078 8.67969 9.82031C8.49219 9.63281 8.25781 9.51562 8 9.51562C7.71875 9.51562 7.48438 9.63281 7.29688 9.82031C7.10938 10.0078 7.01562 10.2422 7.01562 10.5C7.01562 10.7812 7.10938 11.0156 7.29688 11.2031C7.48438 11.3906 7.71875 11.4844 8 11.4844C8.25781 11.4844 8.49219 11.3906 8.67969 11.2031C8.86719 11.0156 8.98438 10.7812 8.98438 10.5ZM8.98438 2.0625L14.6094 11.8125C14.7266 12.0703 14.7734 12.3281 14.7266 12.5859C14.6797 12.8438 14.5391 13.0547 14.3516 13.2422C14.1406 13.4297 13.9062 13.5 13.625 13.5H2.375C2.09375 13.5 1.83594 13.4297 1.64844 13.2422C1.4375 13.0547 1.32031 12.8438 1.27344 12.5859C1.22656 12.3281 1.25 12.0703 1.39062 11.8125L7.01562 2.0625C7.15625 1.82812 7.34375 1.66406 7.60156 1.57031C7.85938 1.47656 8.11719 1.47656 8.375 1.57031C8.63281 1.66406 8.84375 1.82812 8.98438 2.0625ZM2.49219 12.1641C2.44531 12.2109 2.44531 12.2578 2.49219 12.3047C2.51562 12.3516 2.5625 12.375 2.60938 12.375H13.3906C13.4375 12.375 13.4609 12.3516 13.5078 12.3047C13.5312 12.2578 13.5312 12.2109 13.5078 12.1641L8.11719 2.83594C8.07031 2.78906 8.04688 2.76562 8 2.76562C7.95312 2.76562 7.90625 2.78906 7.88281 2.83594L2.49219 12.1641Z" fill="#FF0400" fill-opacity="0.5"/>
</svg>
