<svg width="16" height="16" viewBox="0 0 16 16" fill="none" xmlns="http://www.w3.org/2000/svg">
    <path fill="currentColor" fill-rule="evenodd" clip-rule="evenodd" d="M7.54268 14.6625C7.3269 14.644 7.11187 14.6178 6.89798 14.5839C3.9426 14.09 1.67759 11.6887 1.35703 8.70957C1.3237 8.42756 1.3237 7.57085 1.35703 7.2895C1.54171 5.74409 2.17174 4.41136 3.22846 3.32997C4.31451 2.21991 5.69592 1.54855 7.28866 1.35854C7.57001 1.3252 8.42739 1.3252 8.70873 1.35854C10.3015 1.54855 11.6829 2.21991 12.7689 3.32997C13.8257 4.41136 14.4557 5.74342 14.6404 7.28883C14.6737 7.57085 14.6737 8.42756 14.6404 8.70891C14.4557 10.2543 13.8257 11.5877 12.7689 12.6684C11.6849 13.7765 10.2981 14.4512 8.7154 14.6392C8.32477 14.6635 7.93329 14.6713 7.54201 14.6625H7.54268ZM7.63388 13.3299C7.46126 13.3151 7.28923 13.2941 7.11812 13.267C4.75382 12.8719 2.94181 10.9509 2.68537 8.5676C2.6587 8.342 2.6587 7.65664 2.68537 7.43156C2.83311 6.19526 3.33713 5.12909 4.18251 4.26399C5.05135 3.37596 6.15647 2.83888 7.43067 2.68687C7.65575 2.6602 8.34165 2.6602 8.56673 2.68687C9.84092 2.83888 10.946 3.37596 11.8149 4.26399C12.6603 5.12909 13.1643 6.19472 13.312 7.43103C13.3387 7.65664 13.3387 8.342 13.312 8.56707C13.1643 9.80338 12.6603 10.8701 11.8149 11.7346C10.9476 12.6211 9.83826 13.1608 8.57206 13.3112C8.25956 13.3307 7.94637 13.3369 7.63335 13.3299H7.63388ZM8.83236 9.3352V6.66854H7.16436V12.0019H8.83236V9.3352ZM8.20036 5.6312C8.4837 5.56387 8.72503 5.32387 8.80036 5.0332C8.82636 4.93254 8.82636 4.73054 8.80036 4.6292C8.72225 4.33618 8.49338 4.10732 8.20036 4.0292C8.15636 4.01854 8.06836 4.0092 7.99836 4.0092C7.76236 4.0092 7.58436 4.0832 7.41703 4.25054C7.25746 4.40072 7.17006 4.61219 7.17703 4.8312C7.17703 5.05454 7.24903 5.23854 7.39903 5.39654C7.61036 5.61854 7.89903 5.7032 8.20036 5.6312Z"/>
</svg>
